<svg xmlns="http://www.w3.org/2000/svg" viewBox="0 0 600 600" role="img" aria-label="Hugo — silhouet in een schemerige kelder met een fles wijn">
  <defs>
    <radialGradient id="coolLight4" cx="0.4" cy="0.22" r="0.95">
      <stop offset="0%" stop-color="#e6d6b4"/>
      <stop offset="55%" stop-color="#9c7c4a"/>
      <stop offset="100%" stop-color="#3a2a16"/>
    </radialGradient>
    <linearGradient id="silhouette4" x1="0" y1="0" x2="0" y2="1">
      <stop offset="0%" stop-color="#281a10"/>
      <stop offset="100%" stop-color="#120a06"/>
    </linearGradient>
    <filter id="grain4" x="0" y="0" width="100%" height="100%">
      <feTurbulence type="fractalNoise" baseFrequency="0.9" numOctaves="2" seed="29"/>
      <feColorMatrix values="0 0 0 0 0  0 0 0 0 0  0 0 0 0 0  0 0 0 0.18 0"/>
      <feComposite in2="SourceGraphic" operator="in"/>
    </filter>
  </defs>
  <rect width="600" height="600" fill="url(#coolLight4)"/>
  <g opacity="0.92">
    <path d="M190 600 V400 C190 342 222 300 262 290 C282 285 296 270 296 250 C296 228 294 210 300 188 C306 162 326 146 348 146 C374 146 396 168 398 196 C399 214 396 232 396 252 C396 272 410 285 430 290 C470 300 510 342 510 400 V600 Z" fill="url(#silhouette4)"/>
    <ellipse cx="348" cy="232" rx="18" ry="13" fill="#120a06" opacity="0.7"/>
    <rect x="150" y="408" width="26" height="120" rx="9" fill="#243018" opacity="0.85"/>
    <rect x="156" y="386" width="14" height="34" rx="4" fill="#243018" opacity="0.85"/>
    <rect x="150" y="448" width="26" height="38" rx="2" fill="#c7b07a" opacity="0.7"/>
  </g>
  <rect width="600" height="600" fill="#000000" opacity="0.10" filter="url(#grain4)"/>
</svg>
