<svg xmlns="http://www.w3.org/2000/svg" viewBox="0 0 600 600" role="img" aria-label="Léa — silhouet in profiel bij kaarslicht, tastevin in de hand">
  <defs>
    <radialGradient id="coolLight5" cx="0.55" cy="0.3" r="0.95">
      <stop offset="0%" stop-color="#f0e2cc"/>
      <stop offset="55%" stop-color="#b08a5c"/>
      <stop offset="100%" stop-color="#3d2615"/>
    </radialGradient>
    <linearGradient id="silhouette5" x1="0" y1="0" x2="0" y2="1">
      <stop offset="0%" stop-color="#2a1a0e"/>
      <stop offset="100%" stop-color="#130b06"/>
    </linearGradient>
    <filter id="grain5" x="0" y="0" width="100%" height="100%">
      <feTurbulence type="fractalNoise" baseFrequency="0.9" numOctaves="2" seed="37"/>
      <feColorMatrix values="0 0 0 0 0  0 0 0 0 0  0 0 0 0 0  0 0 0 0.18 0"/>
      <feComposite in2="SourceGraphic" operator="in"/>
    </filter>
  </defs>
  <rect width="600" height="600" fill="url(#coolLight5)"/>
  <g opacity="0.92">
    <!-- figure: sommelier in profiel, licht achterover geleund -->
    <path d="M215 600 V415 C215 365 238 328 268 312 C280 306 288 295 288 283 C288 252 284 228 290 207 C298 180 318 162 340 162 C365 162 385 180 390 207 C394 228 390 254 390 284 C390 296 398 308 413 314 C446 330 468 368 468 416 V600 Z" fill="url(#silhouette5)"/>
    <!-- hoofd-silhouetdetail: iets naar voren geleund, concentratie -->
    <ellipse cx="340" cy="240" rx="19" ry="12" fill="#130b06" opacity="0.7"/>
    <!-- tastevin in uitgestrekte hand rechts -->
    <path d="M430 365 C430 365 448 358 462 363 C466 365 468 370 466 376 L460 395 C458 401 453 403 448 400 L435 393 C430 390 428 386 428 381 Z" fill="#b8a070" opacity="0.82"/>
    <ellipse cx="446" cy="376" rx="11" ry="5" fill="#6a4e28" opacity="0.6"/>
    <!-- vlam/kaarslicht suggestie linksonder -->
    <ellipse cx="162" cy="468" rx="6" ry="10" fill="#d4700a" opacity="0.65"/>
    <ellipse cx="162" cy="460" rx="3" ry="5" fill="#f0c060" opacity="0.7"/>
  </g>
  <rect width="600" height="600" fill="#000000" opacity="0.10" filter="url(#grain5)"/>
</svg>
