<svg xmlns="http://www.w3.org/2000/svg" viewBox="0 0 600 600" role="img" aria-label="Robin — silhouet buiten bij een qvevri, fles natuur-wijn in de hand">
  <defs>
    <radialGradient id="earthLight6" cx="0.45" cy="0.35" r="0.95">
      <stop offset="0%" stop-color="#e8dfc4"/>
      <stop offset="55%" stop-color="#8a7850"/>
      <stop offset="100%" stop-color="#2e2010"/>
    </radialGradient>
    <linearGradient id="silhouette6" x1="0" y1="0" x2="0" y2="1">
      <stop offset="0%" stop-color="#221608"/>
      <stop offset="100%" stop-color="#100b04"/>
    </linearGradient>
    <filter id="grain6" x="0" y="0" width="100%" height="100%">
      <feTurbulence type="fractalNoise" baseFrequency="0.9" numOctaves="2" seed="43"/>
      <feColorMatrix values="0 0 0 0 0  0 0 0 0 0  0 0 0 0 0  0 0 0 0.18 0"/>
      <feComposite in2="SourceGraphic" operator="in"/>
    </filter>
  </defs>
  <rect width="600" height="600" fill="url(#earthLight6)"/>
  <g opacity="0.92">
    <!-- figuur: leuning/relaxte houding, licht voorovergebogen -->
    <path d="M200 600 V420 C200 372 224 336 255 320 C266 314 272 302 270 288 C268 262 264 236 270 212 C278 184 300 165 324 165 C350 165 372 184 376 212 C381 236 376 262 374 290 C374 305 385 316 400 324 C436 342 460 380 460 424 V600 Z" fill="url(#silhouette6)"/>
    <!-- hoofd -->
    <ellipse cx="324" cy="246" rx="18" ry="12" fill="#100b04" opacity="0.7"/>
    <!-- fles natuur-wijn linksonder, schuin gehouden -->
    <rect x="136" y="400" width="22" height="88" rx="8" fill="#1c2814" opacity="0.88" transform="rotate(-18 147 444)"/>
    <rect x="140" y="388" width="14" height="28" rx="3" fill="#1c2814" opacity="0.88" transform="rotate(-18 147 402)"/>
    <!-- qvevri suggestie rechts: halve ovaal -->
    <ellipse cx="462" cy="502" rx="34" ry="44" fill="#3a2c14" opacity="0.6"/>
    <ellipse cx="462" cy="460" rx="20" ry="8" fill="#2a1c0a" opacity="0.55"/>
  </g>
  <rect width="600" height="600" fill="#000000" opacity="0.10" filter="url(#grain6)"/>
</svg>
